<mxfile host="app.diagrams.net" modified="2023-04-02T02:24:33.230Z" agent="Mozilla/5.0 (Windows NT 10.0; Win64; x64) AppleWebKit/537.36 (KHTML, like Gecko) Chrome/112.0.0.0 Safari/537.36 Edg/112.0.0.0" etag="3X6IlVgW3FiR-lma_Frc" version="21.1.2" type="device">
  <diagram name="Trang-1" id="WGwjZF1ayCgLzH8h0nFP">
    <mxGraphModel dx="727" dy="419" grid="0" gridSize="10" guides="1" tooltips="1" connect="1" arrows="1" fold="1" page="0" pageScale="1" pageWidth="3300" pageHeight="4681" math="0" shadow="0">
      <root>
        <mxCell id="0" />
        <mxCell id="1" parent="0" />
        <mxCell id="24KTE11Bma6BI79fgWMw-19" value="" style="rounded=0;whiteSpace=wrap;html=1;dashed=1;strokeWidth=2;" parent="1" vertex="1">
          <mxGeometry x="646" y="166" width="229" height="342" as="geometry" />
        </mxCell>
        <mxCell id="gi7hXdSJ0SCI4IGhWJ_C-24" value="" style="rounded=0;whiteSpace=wrap;html=1;dashed=1;strokeWidth=2;" parent="1" vertex="1">
          <mxGeometry x="194" y="166" width="441" height="286" as="geometry" />
        </mxCell>
        <mxCell id="gi7hXdSJ0SCI4IGhWJ_C-14" value="&lt;b&gt;INITIAL DEFAULT&lt;/b&gt;" style="rounded=1;whiteSpace=wrap;html=1;strokeWidth=2;" parent="1" vertex="1">
          <mxGeometry x="350" y="179" width="121" height="34" as="geometry" />
        </mxCell>
        <mxCell id="24KTE11Bma6BI79fgWMw-17" style="edgeStyle=orthogonalEdgeStyle;rounded=0;orthogonalLoop=1;jettySize=auto;html=1;entryX=0.5;entryY=0;entryDx=0;entryDy=0;" parent="1" source="gi7hXdSJ0SCI4IGhWJ_C-15" target="gi7hXdSJ0SCI4IGhWJ_C-35" edge="1">
          <mxGeometry relative="1" as="geometry" />
        </mxCell>
        <mxCell id="gi7hXdSJ0SCI4IGhWJ_C-15" value="INPUT TEXT: 8bit (each pos clk)" style="rounded=0;whiteSpace=wrap;html=1;strokeWidth=2;" parent="1" vertex="1">
          <mxGeometry x="220" y="261" width="179.5" height="33" as="geometry" />
        </mxCell>
        <mxCell id="gi7hXdSJ0SCI4IGhWJ_C-16" style="edgeStyle=orthogonalEdgeStyle;rounded=0;orthogonalLoop=1;jettySize=auto;html=1;entryX=0.5;entryY=0;entryDx=0;entryDy=0;" parent="1" source="gi7hXdSJ0SCI4IGhWJ_C-14" target="gi7hXdSJ0SCI4IGhWJ_C-15" edge="1">
          <mxGeometry relative="1" as="geometry" />
        </mxCell>
        <mxCell id="gi7hXdSJ0SCI4IGhWJ_C-17" value="&lt;div style=&quot;&quot;&gt;&lt;span style=&quot;background-color: initial;&quot;&gt;OUTPUT TEXT: 8bit (each pos clk)&lt;/span&gt;&lt;/div&gt;" style="rounded=0;whiteSpace=wrap;html=1;strokeWidth=2;align=center;" parent="1" vertex="1">
          <mxGeometry x="214.13" y="388" width="192" height="33" as="geometry" />
        </mxCell>
        <mxCell id="gi7hXdSJ0SCI4IGhWJ_C-19" value="SYMBOL IN ASCII &lt;br&gt;(each symbol is 8bit)" style="rounded=0;whiteSpace=wrap;html=1;strokeWidth=2;" parent="1" vertex="1">
          <mxGeometry x="448" y="261" width="137" height="33" as="geometry" />
        </mxCell>
        <mxCell id="gi7hXdSJ0SCI4IGhWJ_C-20" style="edgeStyle=orthogonalEdgeStyle;rounded=0;orthogonalLoop=1;jettySize=auto;html=1;" parent="1" source="gi7hXdSJ0SCI4IGhWJ_C-14" target="gi7hXdSJ0SCI4IGhWJ_C-19" edge="1">
          <mxGeometry relative="1" as="geometry" />
        </mxCell>
        <mxCell id="gi7hXdSJ0SCI4IGhWJ_C-28" style="edgeStyle=orthogonalEdgeStyle;rounded=0;orthogonalLoop=1;jettySize=auto;html=1;" parent="1" source="gi7hXdSJ0SCI4IGhWJ_C-21" target="gi7hXdSJ0SCI4IGhWJ_C-27" edge="1">
          <mxGeometry relative="1" as="geometry" />
        </mxCell>
        <mxCell id="gi7hXdSJ0SCI4IGhWJ_C-21" value="N: frequency total symbols" style="rounded=0;whiteSpace=wrap;html=1;strokeWidth=2;" parent="1" vertex="1">
          <mxGeometry x="448" y="319" width="137" height="33" as="geometry" />
        </mxCell>
        <mxCell id="gi7hXdSJ0SCI4IGhWJ_C-22" style="edgeStyle=orthogonalEdgeStyle;rounded=0;orthogonalLoop=1;jettySize=auto;html=1;entryX=0.5;entryY=0;entryDx=0;entryDy=0;" parent="1" source="gi7hXdSJ0SCI4IGhWJ_C-19" target="gi7hXdSJ0SCI4IGhWJ_C-21" edge="1">
          <mxGeometry relative="1" as="geometry" />
        </mxCell>
        <mxCell id="gi7hXdSJ0SCI4IGhWJ_C-27" value="FREQ: frequency&lt;br&gt;IDEN: order of tree&lt;br&gt;SYMBOL: code ASCII" style="rounded=0;whiteSpace=wrap;html=1;strokeWidth=2;" parent="1" vertex="1">
          <mxGeometry x="448" y="377" width="137" height="55" as="geometry" />
        </mxCell>
        <mxCell id="oCeH0NB3TBP8RnQr3PCx-47" value="" style="group" parent="1" vertex="1" connectable="0">
          <mxGeometry x="2216" y="165" width="1199" height="570" as="geometry" />
        </mxCell>
        <mxCell id="oCeH0NB3TBP8RnQr3PCx-45" value="" style="rounded=0;whiteSpace=wrap;html=1;dashed=1;strokeWidth=2;" parent="oCeH0NB3TBP8RnQr3PCx-47" vertex="1">
          <mxGeometry width="1199" height="570" as="geometry" />
        </mxCell>
        <mxCell id="pd7GbljXuaboCpMc4X3h-1" value="&lt;b&gt;&lt;font style=&quot;font-size: 10px;&quot;&gt;HUFFMAN TREE&lt;/font&gt;&lt;/b&gt;" style="rounded=1;whiteSpace=wrap;html=1;strokeWidth=2;" parent="oCeH0NB3TBP8RnQr3PCx-47" vertex="1">
          <mxGeometry x="234" y="5" width="107" height="26" as="geometry" />
        </mxCell>
        <mxCell id="pd7GbljXuaboCpMc4X3h-2" value="n : number of symbol in text&lt;br&gt;N: frequency of symbols in text&lt;br&gt;F: sum of all the value ASCII symbols" style="rounded=0;whiteSpace=wrap;html=1;strokeWidth=2;" parent="oCeH0NB3TBP8RnQr3PCx-47" vertex="1">
          <mxGeometry x="162" y="51" width="251.5" height="60" as="geometry" />
        </mxCell>
        <mxCell id="pd7GbljXuaboCpMc4X3h-4" style="edgeStyle=orthogonalEdgeStyle;rounded=0;orthogonalLoop=1;jettySize=auto;html=1;" parent="oCeH0NB3TBP8RnQr3PCx-47" source="pd7GbljXuaboCpMc4X3h-1" target="pd7GbljXuaboCpMc4X3h-2" edge="1">
          <mxGeometry relative="1" as="geometry" />
        </mxCell>
        <mxCell id="pd7GbljXuaboCpMc4X3h-3" value="Format of element&lt;br&gt;[Log2(N)+1]-[Log2(F)+1]" style="rounded=0;whiteSpace=wrap;html=1;strokeWidth=2;" parent="oCeH0NB3TBP8RnQr3PCx-47" vertex="1">
          <mxGeometry x="161.5" y="142" width="252" height="60" as="geometry" />
        </mxCell>
        <mxCell id="pd7GbljXuaboCpMc4X3h-5" style="edgeStyle=orthogonalEdgeStyle;rounded=0;orthogonalLoop=1;jettySize=auto;html=1;entryX=0.5;entryY=0;entryDx=0;entryDy=0;" parent="oCeH0NB3TBP8RnQr3PCx-47" source="pd7GbljXuaboCpMc4X3h-2" target="pd7GbljXuaboCpMc4X3h-3" edge="1">
          <mxGeometry relative="1" as="geometry" />
        </mxCell>
        <mxCell id="pd7GbljXuaboCpMc4X3h-6" value="[ELEMENT-1:0] Leaf_node [n]" style="rounded=0;whiteSpace=wrap;html=1;strokeWidth=2;" parent="oCeH0NB3TBP8RnQr3PCx-47" vertex="1">
          <mxGeometry x="169.7199999999998" y="233" width="237" height="60" as="geometry" />
        </mxCell>
        <mxCell id="pd7GbljXuaboCpMc4X3h-7" style="edgeStyle=orthogonalEdgeStyle;rounded=0;orthogonalLoop=1;jettySize=auto;html=1;entryX=0.5;entryY=0;entryDx=0;entryDy=0;" parent="oCeH0NB3TBP8RnQr3PCx-47" source="pd7GbljXuaboCpMc4X3h-3" target="pd7GbljXuaboCpMc4X3h-6" edge="1">
          <mxGeometry relative="1" as="geometry" />
        </mxCell>
        <mxCell id="pd7GbljXuaboCpMc4X3h-9" value="&lt;span style=&quot;font-size: 10px;&quot;&gt;&lt;b&gt;LEAF NODE DATA&lt;/b&gt;&lt;/span&gt;" style="rounded=1;whiteSpace=wrap;html=1;strokeWidth=2;" parent="oCeH0NB3TBP8RnQr3PCx-47" vertex="1">
          <mxGeometry x="233.75" y="321" width="107" height="26" as="geometry" />
        </mxCell>
        <mxCell id="pd7GbljXuaboCpMc4X3h-8" style="edgeStyle=orthogonalEdgeStyle;rounded=0;orthogonalLoop=1;jettySize=auto;html=1;" parent="oCeH0NB3TBP8RnQr3PCx-47" source="pd7GbljXuaboCpMc4X3h-6" target="pd7GbljXuaboCpMc4X3h-9" edge="1">
          <mxGeometry relative="1" as="geometry">
            <mxPoint x="287.5" y="377.6667005750868" as="targetPoint" />
          </mxGeometry>
        </mxCell>
        <mxCell id="pd7GbljXuaboCpMc4X3h-10" value="Leaf_node[i] = TABLE[i]" style="rounded=0;whiteSpace=wrap;html=1;strokeWidth=2;" parent="oCeH0NB3TBP8RnQr3PCx-47" vertex="1">
          <mxGeometry x="169.7199999999998" y="436" width="235.07" height="35" as="geometry" />
        </mxCell>
        <mxCell id="pd7GbljXuaboCpMc4X3h-15" style="edgeStyle=orthogonalEdgeStyle;rounded=0;orthogonalLoop=1;jettySize=auto;html=1;entryX=0.5;entryY=0;entryDx=0;entryDy=0;" parent="oCeH0NB3TBP8RnQr3PCx-47" source="pd7GbljXuaboCpMc4X3h-12" target="pd7GbljXuaboCpMc4X3h-10" edge="1">
          <mxGeometry relative="1" as="geometry" />
        </mxCell>
        <mxCell id="pd7GbljXuaboCpMc4X3h-12" value="i &amp;lt; n" style="rhombus;whiteSpace=wrap;html=1;strokeWidth=2;" parent="oCeH0NB3TBP8RnQr3PCx-47" vertex="1">
          <mxGeometry x="227.1300000000001" y="370" width="120.25" height="40" as="geometry" />
        </mxCell>
        <mxCell id="pd7GbljXuaboCpMc4X3h-14" style="edgeStyle=orthogonalEdgeStyle;rounded=0;orthogonalLoop=1;jettySize=auto;html=1;entryX=0.5;entryY=0;entryDx=0;entryDy=0;" parent="oCeH0NB3TBP8RnQr3PCx-47" source="pd7GbljXuaboCpMc4X3h-9" target="pd7GbljXuaboCpMc4X3h-12" edge="1">
          <mxGeometry relative="1" as="geometry" />
        </mxCell>
        <mxCell id="pd7GbljXuaboCpMc4X3h-17" style="edgeStyle=orthogonalEdgeStyle;rounded=0;orthogonalLoop=1;jettySize=auto;html=1;entryX=0;entryY=0.5;entryDx=0;entryDy=0;" parent="oCeH0NB3TBP8RnQr3PCx-47" source="pd7GbljXuaboCpMc4X3h-13" target="pd7GbljXuaboCpMc4X3h-12" edge="1">
          <mxGeometry relative="1" as="geometry">
            <Array as="points">
              <mxPoint x="287" y="555" />
              <mxPoint x="147" y="555" />
              <mxPoint x="147" y="390" />
            </Array>
          </mxGeometry>
        </mxCell>
        <mxCell id="pd7GbljXuaboCpMc4X3h-13" value="i++" style="rounded=0;whiteSpace=wrap;html=1;strokeWidth=2;" parent="oCeH0NB3TBP8RnQr3PCx-47" vertex="1">
          <mxGeometry x="221.84000000000015" y="497" width="130.82" height="35" as="geometry" />
        </mxCell>
        <mxCell id="pd7GbljXuaboCpMc4X3h-16" style="edgeStyle=orthogonalEdgeStyle;rounded=0;orthogonalLoop=1;jettySize=auto;html=1;entryX=0.5;entryY=0;entryDx=0;entryDy=0;" parent="oCeH0NB3TBP8RnQr3PCx-47" source="pd7GbljXuaboCpMc4X3h-10" target="pd7GbljXuaboCpMc4X3h-13" edge="1">
          <mxGeometry relative="1" as="geometry" />
        </mxCell>
        <mxCell id="pd7GbljXuaboCpMc4X3h-18" value="YES" style="text;html=1;strokeColor=none;fillColor=none;align=center;verticalAlign=middle;whiteSpace=wrap;rounded=0;" parent="oCeH0NB3TBP8RnQr3PCx-47" vertex="1">
          <mxGeometry x="291" y="410" width="32.75" height="22" as="geometry" />
        </mxCell>
        <mxCell id="pd7GbljXuaboCpMc4X3h-19" value="NO" style="text;html=1;strokeColor=none;fillColor=none;align=center;verticalAlign=middle;whiteSpace=wrap;rounded=0;" parent="oCeH0NB3TBP8RnQr3PCx-47" vertex="1">
          <mxGeometry x="352.6600000000003" y="365" width="32.75" height="22" as="geometry" />
        </mxCell>
        <mxCell id="oCeH0NB3TBP8RnQr3PCx-10" value="&lt;span style=&quot;font-size: 10px;&quot;&gt;&lt;b&gt;PAIR_LIST&lt;/b&gt;&lt;/span&gt;" style="rounded=1;whiteSpace=wrap;html=1;strokeWidth=2;" parent="oCeH0NB3TBP8RnQr3PCx-47" vertex="1">
          <mxGeometry x="975" y="81" width="125" height="26" as="geometry" />
        </mxCell>
        <mxCell id="oCeH0NB3TBP8RnQr3PCx-30" style="edgeStyle=orthogonalEdgeStyle;rounded=0;orthogonalLoop=1;jettySize=auto;html=1;" parent="oCeH0NB3TBP8RnQr3PCx-47" source="oCeH0NB3TBP8RnQr3PCx-13" target="oCeH0NB3TBP8RnQr3PCx-10" edge="1">
          <mxGeometry relative="1" as="geometry">
            <mxPoint x="918.8464885066105" y="94" as="targetPoint" />
          </mxGeometry>
        </mxCell>
        <mxCell id="oCeH0NB3TBP8RnQr3PCx-13" value="count_i &amp;lt; n" style="rhombus;whiteSpace=wrap;html=1;strokeWidth=2;" parent="oCeH0NB3TBP8RnQr3PCx-47" vertex="1">
          <mxGeometry x="756" y="74" width="120.25" height="40" as="geometry" />
        </mxCell>
        <mxCell id="pd7GbljXuaboCpMc4X3h-21" style="edgeStyle=orthogonalEdgeStyle;rounded=0;orthogonalLoop=1;jettySize=auto;html=1;entryX=0.5;entryY=0;entryDx=0;entryDy=0;" parent="oCeH0NB3TBP8RnQr3PCx-47" source="pd7GbljXuaboCpMc4X3h-12" target="oCeH0NB3TBP8RnQr3PCx-13" edge="1">
          <mxGeometry relative="1" as="geometry">
            <mxPoint x="584.5100000000002" y="64" as="targetPoint" />
            <Array as="points">
              <mxPoint x="435" y="390" />
              <mxPoint x="435" y="49" />
              <mxPoint x="816" y="49" />
            </Array>
          </mxGeometry>
        </mxCell>
        <mxCell id="oCeH0NB3TBP8RnQr3PCx-18" value="NO" style="text;html=1;strokeColor=none;fillColor=none;align=center;verticalAlign=middle;whiteSpace=wrap;rounded=0;" parent="oCeH0NB3TBP8RnQr3PCx-47" vertex="1">
          <mxGeometry x="876.2500000000005" y="72" width="32.75" height="22" as="geometry" />
        </mxCell>
        <mxCell id="oCeH0NB3TBP8RnQr3PCx-19" value="YES" style="text;html=1;strokeColor=none;fillColor=none;align=center;verticalAlign=middle;whiteSpace=wrap;rounded=0;" parent="oCeH0NB3TBP8RnQr3PCx-47" vertex="1">
          <mxGeometry x="822" y="120" width="32.75" height="22" as="geometry" />
        </mxCell>
        <mxCell id="oCeH0NB3TBP8RnQr3PCx-48" style="edgeStyle=orthogonalEdgeStyle;rounded=0;orthogonalLoop=1;jettySize=auto;html=1;entryX=0;entryY=0.5;entryDx=0;entryDy=0;" parent="oCeH0NB3TBP8RnQr3PCx-47" source="oCeH0NB3TBP8RnQr3PCx-20" target="oCeH0NB3TBP8RnQr3PCx-32" edge="1">
          <mxGeometry relative="1" as="geometry">
            <Array as="points">
              <mxPoint x="502" y="276" />
              <mxPoint x="502" y="462" />
            </Array>
          </mxGeometry>
        </mxCell>
        <mxCell id="oCeH0NB3TBP8RnQr3PCx-20" value="Leaf_node[count_k][ELE-1:ELE-BIT_FREQ-2]&lt;br&gt;&amp;gt;&lt;br&gt;Leaf_node[count_k+1][ELE-1:ELE-BIT_FREQ-2]" style="rhombus;whiteSpace=wrap;html=1;strokeWidth=2;" parent="oCeH0NB3TBP8RnQr3PCx-47" vertex="1">
          <mxGeometry x="539" y="233" width="555" height="86" as="geometry" />
        </mxCell>
        <mxCell id="oCeH0NB3TBP8RnQr3PCx-27" value="NO" style="text;html=1;strokeColor=none;fillColor=none;align=center;verticalAlign=middle;whiteSpace=wrap;rounded=0;" parent="oCeH0NB3TBP8RnQr3PCx-47" vertex="1">
          <mxGeometry x="496" y="253" width="32.75" height="22" as="geometry" />
        </mxCell>
        <mxCell id="oCeH0NB3TBP8RnQr3PCx-28" value="YES" style="text;html=1;strokeColor=none;fillColor=none;align=center;verticalAlign=middle;whiteSpace=wrap;rounded=0;" parent="oCeH0NB3TBP8RnQr3PCx-47" vertex="1">
          <mxGeometry x="820" y="325" width="32.75" height="22" as="geometry" />
        </mxCell>
        <mxCell id="oCeH0NB3TBP8RnQr3PCx-29" value="Leaf_node[count_k] = Leaf_node[count_k+1]&lt;br&gt;Leaf_node[count_k+1] = Leaf_node[count_k]" style="rounded=0;whiteSpace=wrap;html=1;strokeWidth=2;" parent="oCeH0NB3TBP8RnQr3PCx-47" vertex="1">
          <mxGeometry x="692.6300000000001" y="354" width="247.37" height="60" as="geometry" />
        </mxCell>
        <mxCell id="oCeH0NB3TBP8RnQr3PCx-25" style="edgeStyle=orthogonalEdgeStyle;rounded=0;orthogonalLoop=1;jettySize=auto;html=1;entryX=0.5;entryY=0;entryDx=0;entryDy=0;" parent="oCeH0NB3TBP8RnQr3PCx-47" source="oCeH0NB3TBP8RnQr3PCx-20" target="oCeH0NB3TBP8RnQr3PCx-29" edge="1">
          <mxGeometry relative="1" as="geometry">
            <mxPoint x="585.1300000000001" y="344.53846153846155" as="targetPoint" />
          </mxGeometry>
        </mxCell>
        <mxCell id="oCeH0NB3TBP8RnQr3PCx-32" value="count_k++" style="rounded=0;whiteSpace=wrap;html=1;strokeWidth=2;" parent="oCeH0NB3TBP8RnQr3PCx-47" vertex="1">
          <mxGeometry x="692.81" y="445" width="247.37" height="34" as="geometry" />
        </mxCell>
        <mxCell id="oCeH0NB3TBP8RnQr3PCx-33" style="edgeStyle=orthogonalEdgeStyle;rounded=0;orthogonalLoop=1;jettySize=auto;html=1;entryX=0.5;entryY=0;entryDx=0;entryDy=0;" parent="oCeH0NB3TBP8RnQr3PCx-47" source="oCeH0NB3TBP8RnQr3PCx-29" target="oCeH0NB3TBP8RnQr3PCx-32" edge="1">
          <mxGeometry relative="1" as="geometry" />
        </mxCell>
        <mxCell id="oCeH0NB3TBP8RnQr3PCx-39" style="edgeStyle=orthogonalEdgeStyle;rounded=0;orthogonalLoop=1;jettySize=auto;html=1;entryX=0.5;entryY=0;entryDx=0;entryDy=0;" parent="oCeH0NB3TBP8RnQr3PCx-47" source="oCeH0NB3TBP8RnQr3PCx-35" target="oCeH0NB3TBP8RnQr3PCx-20" edge="1">
          <mxGeometry relative="1" as="geometry">
            <mxPoint x="815.5050000000006" y="222" as="targetPoint" />
          </mxGeometry>
        </mxCell>
        <mxCell id="oCeH0NB3TBP8RnQr3PCx-35" value="count_k &amp;lt; (n-count_i-1)" style="rhombus;whiteSpace=wrap;html=1;strokeWidth=2;" parent="oCeH0NB3TBP8RnQr3PCx-47" vertex="1">
          <mxGeometry x="708.1300000000001" y="152" width="216" height="40" as="geometry" />
        </mxCell>
        <mxCell id="oCeH0NB3TBP8RnQr3PCx-36" style="edgeStyle=orthogonalEdgeStyle;rounded=0;orthogonalLoop=1;jettySize=auto;html=1;entryX=0.5;entryY=0;entryDx=0;entryDy=0;" parent="oCeH0NB3TBP8RnQr3PCx-47" source="oCeH0NB3TBP8RnQr3PCx-13" target="oCeH0NB3TBP8RnQr3PCx-35" edge="1">
          <mxGeometry relative="1" as="geometry" />
        </mxCell>
        <mxCell id="oCeH0NB3TBP8RnQr3PCx-43" style="edgeStyle=orthogonalEdgeStyle;rounded=0;orthogonalLoop=1;jettySize=auto;html=1;entryX=0.5;entryY=0;entryDx=0;entryDy=0;" parent="oCeH0NB3TBP8RnQr3PCx-47" source="oCeH0NB3TBP8RnQr3PCx-32" target="oCeH0NB3TBP8RnQr3PCx-35" edge="1">
          <mxGeometry relative="1" as="geometry">
            <Array as="points">
              <mxPoint x="817" y="528" />
              <mxPoint x="465" y="528" />
              <mxPoint x="465" y="132" />
              <mxPoint x="816" y="132" />
            </Array>
          </mxGeometry>
        </mxCell>
        <mxCell id="oCeH0NB3TBP8RnQr3PCx-37" value="YES" style="text;html=1;strokeColor=none;fillColor=none;align=center;verticalAlign=middle;whiteSpace=wrap;rounded=0;" parent="oCeH0NB3TBP8RnQr3PCx-47" vertex="1">
          <mxGeometry x="826" y="197" width="32.75" height="22" as="geometry" />
        </mxCell>
        <mxCell id="oCeH0NB3TBP8RnQr3PCx-38" value="NO" style="text;html=1;strokeColor=none;fillColor=none;align=center;verticalAlign=middle;whiteSpace=wrap;rounded=0;" parent="oCeH0NB3TBP8RnQr3PCx-47" vertex="1">
          <mxGeometry x="932.0000000000005" y="146.5" width="32.75" height="22" as="geometry" />
        </mxCell>
        <mxCell id="oCeH0NB3TBP8RnQr3PCx-44" style="edgeStyle=orthogonalEdgeStyle;rounded=0;orthogonalLoop=1;jettySize=auto;html=1;entryX=0.5;entryY=0;entryDx=0;entryDy=0;" parent="oCeH0NB3TBP8RnQr3PCx-47" source="oCeH0NB3TBP8RnQr3PCx-41" target="oCeH0NB3TBP8RnQr3PCx-13" edge="1">
          <mxGeometry relative="1" as="geometry">
            <Array as="points">
              <mxPoint x="1131" y="172" />
              <mxPoint x="1131" y="49" />
              <mxPoint x="816" y="49" />
            </Array>
          </mxGeometry>
        </mxCell>
        <mxCell id="oCeH0NB3TBP8RnQr3PCx-41" value="count_k = 0&lt;br&gt;count_i ++" style="rounded=0;whiteSpace=wrap;html=1;strokeWidth=2;" parent="oCeH0NB3TBP8RnQr3PCx-47" vertex="1">
          <mxGeometry x="990" y="153" width="90" height="38" as="geometry" />
        </mxCell>
        <mxCell id="oCeH0NB3TBP8RnQr3PCx-40" style="edgeStyle=orthogonalEdgeStyle;rounded=0;orthogonalLoop=1;jettySize=auto;html=1;entryX=0;entryY=0.5;entryDx=0;entryDy=0;" parent="oCeH0NB3TBP8RnQr3PCx-47" source="oCeH0NB3TBP8RnQr3PCx-35" target="oCeH0NB3TBP8RnQr3PCx-41" edge="1">
          <mxGeometry relative="1" as="geometry">
            <mxPoint x="977.242350260417" y="172" as="targetPoint" />
          </mxGeometry>
        </mxCell>
        <mxCell id="oCeH0NB3TBP8RnQr3PCx-67" value="" style="group" parent="1" vertex="1" connectable="0">
          <mxGeometry x="3444" y="165" width="387" height="570" as="geometry" />
        </mxCell>
        <mxCell id="oCeH0NB3TBP8RnQr3PCx-65" value="" style="rounded=0;whiteSpace=wrap;html=1;dashed=1;strokeWidth=2;" parent="oCeH0NB3TBP8RnQr3PCx-67" vertex="1">
          <mxGeometry width="387" height="570" as="geometry" />
        </mxCell>
        <mxCell id="oCeH0NB3TBP8RnQr3PCx-46" value="&lt;span style=&quot;font-size: 10px;&quot;&gt;&lt;b&gt;PAIR_LIST&lt;/b&gt;&lt;/span&gt;" style="rounded=1;whiteSpace=wrap;html=1;strokeWidth=2;" parent="oCeH0NB3TBP8RnQr3PCx-67" vertex="1">
          <mxGeometry x="138" y="33" width="125" height="26" as="geometry" />
        </mxCell>
        <mxCell id="oCeH0NB3TBP8RnQr3PCx-49" value="k &amp;lt; n - 2" style="rhombus;whiteSpace=wrap;html=1;strokeWidth=2;" parent="oCeH0NB3TBP8RnQr3PCx-67" vertex="1">
          <mxGeometry x="140.3800000000001" y="156.43" width="120.25" height="40" as="geometry" />
        </mxCell>
        <mxCell id="oCeH0NB3TBP8RnQr3PCx-51" value="NO" style="text;html=1;strokeColor=none;fillColor=none;align=center;verticalAlign=middle;whiteSpace=wrap;rounded=0;" parent="oCeH0NB3TBP8RnQr3PCx-67" vertex="1">
          <mxGeometry x="260.63000000000056" y="151.5" width="32.75" height="22" as="geometry" />
        </mxCell>
        <mxCell id="oCeH0NB3TBP8RnQr3PCx-52" value="YES" style="text;html=1;strokeColor=none;fillColor=none;align=center;verticalAlign=middle;whiteSpace=wrap;rounded=0;" parent="oCeH0NB3TBP8RnQr3PCx-67" vertex="1">
          <mxGeometry x="206" y="198" width="32.75" height="22" as="geometry" />
        </mxCell>
        <mxCell id="oCeH0NB3TBP8RnQr3PCx-56" style="edgeStyle=orthogonalEdgeStyle;rounded=0;orthogonalLoop=1;jettySize=auto;html=1;entryX=0.5;entryY=0;entryDx=0;entryDy=0;" parent="oCeH0NB3TBP8RnQr3PCx-67" source="oCeH0NB3TBP8RnQr3PCx-54" target="oCeH0NB3TBP8RnQr3PCx-49" edge="1">
          <mxGeometry relative="1" as="geometry">
            <mxPoint x="200.5" y="151.0606023615057" as="targetPoint" />
          </mxGeometry>
        </mxCell>
        <mxCell id="oCeH0NB3TBP8RnQr3PCx-54" value="tmp &amp;lt;= Lead_node" style="rounded=0;whiteSpace=wrap;html=1;strokeWidth=2;" parent="oCeH0NB3TBP8RnQr3PCx-67" vertex="1">
          <mxGeometry x="112.5" y="87" width="176" height="40" as="geometry" />
        </mxCell>
        <mxCell id="oCeH0NB3TBP8RnQr3PCx-55" style="edgeStyle=orthogonalEdgeStyle;rounded=0;orthogonalLoop=1;jettySize=auto;html=1;entryX=0.5;entryY=0;entryDx=0;entryDy=0;" parent="oCeH0NB3TBP8RnQr3PCx-67" source="oCeH0NB3TBP8RnQr3PCx-46" target="oCeH0NB3TBP8RnQr3PCx-54" edge="1">
          <mxGeometry relative="1" as="geometry" />
        </mxCell>
        <mxCell id="oCeH0NB3TBP8RnQr3PCx-58" value="tmp[k] &amp;lt;= tmp[k] + tmp[k+1]&lt;br&gt;pair_list[k] = tmp[k]&lt;br&gt;pair_list[k+1] = tmp[k+1]&lt;br&gt;tmp[k+1] = 0&amp;nbsp;&lt;br&gt;k++" style="rounded=0;whiteSpace=wrap;html=1;strokeWidth=2;" parent="oCeH0NB3TBP8RnQr3PCx-67" vertex="1">
          <mxGeometry x="112.51000000000022" y="230" width="176" height="90" as="geometry" />
        </mxCell>
        <mxCell id="oCeH0NB3TBP8RnQr3PCx-57" style="edgeStyle=orthogonalEdgeStyle;rounded=0;orthogonalLoop=1;jettySize=auto;html=1;entryX=0.5;entryY=0;entryDx=0;entryDy=0;" parent="oCeH0NB3TBP8RnQr3PCx-67" source="oCeH0NB3TBP8RnQr3PCx-49" target="oCeH0NB3TBP8RnQr3PCx-58" edge="1">
          <mxGeometry relative="1" as="geometry">
            <mxPoint x="200.5050000000001" y="234.19610236672793" as="targetPoint" />
          </mxGeometry>
        </mxCell>
        <mxCell id="oCeH0NB3TBP8RnQr3PCx-62" style="edgeStyle=orthogonalEdgeStyle;rounded=0;orthogonalLoop=1;jettySize=auto;html=1;entryX=0.5;entryY=0;entryDx=0;entryDy=0;" parent="oCeH0NB3TBP8RnQr3PCx-67" source="oCeH0NB3TBP8RnQr3PCx-60" target="oCeH0NB3TBP8RnQr3PCx-49" edge="1">
          <mxGeometry relative="1" as="geometry">
            <Array as="points">
              <mxPoint x="60" y="356" />
              <mxPoint x="60" y="144" />
              <mxPoint x="201" y="144" />
            </Array>
          </mxGeometry>
        </mxCell>
        <mxCell id="oCeH0NB3TBP8RnQr3PCx-60" value="&lt;span style=&quot;font-size: 10px;&quot;&gt;&lt;b&gt;BUBLE SORT FREQ&lt;/b&gt;&lt;/span&gt;" style="rounded=1;whiteSpace=wrap;html=1;strokeWidth=2;" parent="oCeH0NB3TBP8RnQr3PCx-67" vertex="1">
          <mxGeometry x="138.01000000000022" y="343" width="125" height="26" as="geometry" />
        </mxCell>
        <mxCell id="oCeH0NB3TBP8RnQr3PCx-61" style="edgeStyle=orthogonalEdgeStyle;rounded=0;orthogonalLoop=1;jettySize=auto;html=1;entryX=0.5;entryY=0;entryDx=0;entryDy=0;" parent="oCeH0NB3TBP8RnQr3PCx-67" source="oCeH0NB3TBP8RnQr3PCx-58" target="oCeH0NB3TBP8RnQr3PCx-60" edge="1">
          <mxGeometry relative="1" as="geometry" />
        </mxCell>
        <mxCell id="oCeH0NB3TBP8RnQr3PCx-63" value="&lt;span style=&quot;font-size: 10px;&quot;&gt;&lt;b&gt;ENCODE&lt;/b&gt;&lt;/span&gt;" style="rounded=1;whiteSpace=wrap;html=1;strokeWidth=2;" parent="oCeH0NB3TBP8RnQr3PCx-67" vertex="1">
          <mxGeometry x="138" y="385" width="125" height="26" as="geometry" />
        </mxCell>
        <mxCell id="oCeH0NB3TBP8RnQr3PCx-64" style="edgeStyle=orthogonalEdgeStyle;rounded=0;orthogonalLoop=1;jettySize=auto;html=1;entryX=1;entryY=0.5;entryDx=0;entryDy=0;" parent="oCeH0NB3TBP8RnQr3PCx-67" source="oCeH0NB3TBP8RnQr3PCx-49" target="oCeH0NB3TBP8RnQr3PCx-63" edge="1">
          <mxGeometry relative="1" as="geometry">
            <Array as="points">
              <mxPoint x="307" y="176" />
              <mxPoint x="307" y="398" />
            </Array>
          </mxGeometry>
        </mxCell>
        <mxCell id="oCeH0NB3TBP8RnQr3PCx-68" value="" style="group" parent="1" vertex="1" connectable="0">
          <mxGeometry x="1378" y="165" width="817" height="555" as="geometry" />
        </mxCell>
        <mxCell id="gi7hXdSJ0SCI4IGhWJ_C-67" value="" style="rounded=0;whiteSpace=wrap;html=1;dashed=1;strokeWidth=2;" parent="oCeH0NB3TBP8RnQr3PCx-68" vertex="1">
          <mxGeometry width="817" height="555" as="geometry" />
        </mxCell>
        <mxCell id="gi7hXdSJ0SCI4IGhWJ_C-26" value="&lt;b&gt;&lt;font style=&quot;font-size: 10px;&quot;&gt;TABLE PROBALITY&lt;/font&gt;&lt;/b&gt;" style="rounded=1;whiteSpace=wrap;html=1;strokeWidth=2;" parent="oCeH0NB3TBP8RnQr3PCx-68" vertex="1">
          <mxGeometry x="236.30999999999995" y="16" width="107" height="26" as="geometry" />
        </mxCell>
        <mxCell id="gi7hXdSJ0SCI4IGhWJ_C-29" value="FORMAT: FREQUENCY_ASCII" style="rounded=0;whiteSpace=wrap;html=1;strokeWidth=2;" parent="oCeH0NB3TBP8RnQr3PCx-68" vertex="1">
          <mxGeometry x="148.30999999999995" y="69" width="283.62" height="46" as="geometry" />
        </mxCell>
        <mxCell id="gi7hXdSJ0SCI4IGhWJ_C-30" style="edgeStyle=orthogonalEdgeStyle;rounded=0;orthogonalLoop=1;jettySize=auto;html=1;entryX=0.5;entryY=0;entryDx=0;entryDy=0;" parent="oCeH0NB3TBP8RnQr3PCx-68" source="gi7hXdSJ0SCI4IGhWJ_C-26" target="gi7hXdSJ0SCI4IGhWJ_C-29" edge="1">
          <mxGeometry relative="1" as="geometry" />
        </mxCell>
        <mxCell id="gi7hXdSJ0SCI4IGhWJ_C-41" value="&lt;b&gt;BUBLE SORT (TEXT)&lt;br&gt;FIND n (based on sort)&lt;br&gt;&lt;/b&gt;" style="rounded=0;whiteSpace=wrap;html=1;strokeWidth=2;" parent="oCeH0NB3TBP8RnQr3PCx-68" vertex="1">
          <mxGeometry x="184" y="140" width="211" height="46" as="geometry" />
        </mxCell>
        <mxCell id="gi7hXdSJ0SCI4IGhWJ_C-43" style="edgeStyle=orthogonalEdgeStyle;rounded=0;orthogonalLoop=1;jettySize=auto;html=1;" parent="oCeH0NB3TBP8RnQr3PCx-68" source="gi7hXdSJ0SCI4IGhWJ_C-29" target="gi7hXdSJ0SCI4IGhWJ_C-41" edge="1">
          <mxGeometry relative="1" as="geometry" />
        </mxCell>
        <mxCell id="gi7hXdSJ0SCI4IGhWJ_C-45" value="i &amp;lt; N" style="rhombus;whiteSpace=wrap;html=1;strokeWidth=2;" parent="oCeH0NB3TBP8RnQr3PCx-68" vertex="1">
          <mxGeometry x="213.5" y="281" width="152" height="61" as="geometry" />
        </mxCell>
        <mxCell id="gi7hXdSJ0SCI4IGhWJ_C-48" style="edgeStyle=orthogonalEdgeStyle;rounded=0;orthogonalLoop=1;jettySize=auto;html=1;entryX=0.5;entryY=0;entryDx=0;entryDy=0;strokeWidth=2;" parent="oCeH0NB3TBP8RnQr3PCx-68" source="gi7hXdSJ0SCI4IGhWJ_C-46" target="gi7hXdSJ0SCI4IGhWJ_C-45" edge="1">
          <mxGeometry relative="1" as="geometry" />
        </mxCell>
        <mxCell id="gi7hXdSJ0SCI4IGhWJ_C-46" value="i = 1, count = 1, index = 0&lt;br&gt;[(BIT_FREQ+BIT_SYMBOL - 1):0] TABLE [n]" style="rounded=0;whiteSpace=wrap;html=1;strokeWidth=2;" parent="oCeH0NB3TBP8RnQr3PCx-68" vertex="1">
          <mxGeometry x="93" y="210" width="393" height="32" as="geometry" />
        </mxCell>
        <mxCell id="gi7hXdSJ0SCI4IGhWJ_C-47" style="edgeStyle=orthogonalEdgeStyle;rounded=0;orthogonalLoop=1;jettySize=auto;html=1;entryX=0.5;entryY=0;entryDx=0;entryDy=0;" parent="oCeH0NB3TBP8RnQr3PCx-68" source="gi7hXdSJ0SCI4IGhWJ_C-41" target="gi7hXdSJ0SCI4IGhWJ_C-46" edge="1">
          <mxGeometry relative="1" as="geometry" />
        </mxCell>
        <mxCell id="gi7hXdSJ0SCI4IGhWJ_C-49" value="&lt;font style=&quot;font-size: 10px;&quot;&gt;STRING[i] == STRING[i-1]&lt;/font&gt;" style="rhombus;whiteSpace=wrap;html=1;strokeWidth=2;" parent="oCeH0NB3TBP8RnQr3PCx-68" vertex="1">
          <mxGeometry x="212.5" y="402.5" width="155.25" height="63" as="geometry" />
        </mxCell>
        <mxCell id="gi7hXdSJ0SCI4IGhWJ_C-52" style="edgeStyle=orthogonalEdgeStyle;rounded=0;orthogonalLoop=1;jettySize=auto;html=1;entryX=0.5;entryY=0;entryDx=0;entryDy=0;strokeWidth=2;" parent="oCeH0NB3TBP8RnQr3PCx-68" source="gi7hXdSJ0SCI4IGhWJ_C-45" target="gi7hXdSJ0SCI4IGhWJ_C-49" edge="1">
          <mxGeometry relative="1" as="geometry" />
        </mxCell>
        <mxCell id="gi7hXdSJ0SCI4IGhWJ_C-50" value="count++" style="rounded=0;whiteSpace=wrap;html=1;strokeWidth=2;" parent="oCeH0NB3TBP8RnQr3PCx-68" vertex="1">
          <mxGeometry x="229.5" y="510" width="120" height="31" as="geometry" />
        </mxCell>
        <mxCell id="gi7hXdSJ0SCI4IGhWJ_C-53" style="edgeStyle=orthogonalEdgeStyle;rounded=0;orthogonalLoop=1;jettySize=auto;html=1;entryX=0.5;entryY=0;entryDx=0;entryDy=0;strokeWidth=2;" parent="oCeH0NB3TBP8RnQr3PCx-68" source="gi7hXdSJ0SCI4IGhWJ_C-49" target="gi7hXdSJ0SCI4IGhWJ_C-50" edge="1">
          <mxGeometry relative="1" as="geometry" />
        </mxCell>
        <mxCell id="gi7hXdSJ0SCI4IGhWJ_C-51" value="count = 1, index++&lt;br&gt;TABLE[index] = {count,STRING[i]}" style="rounded=0;whiteSpace=wrap;html=1;strokeWidth=2;" parent="oCeH0NB3TBP8RnQr3PCx-68" vertex="1">
          <mxGeometry x="424" y="405" width="241" height="57" as="geometry" />
        </mxCell>
        <mxCell id="gi7hXdSJ0SCI4IGhWJ_C-54" style="edgeStyle=orthogonalEdgeStyle;rounded=0;orthogonalLoop=1;jettySize=auto;html=1;entryX=0;entryY=0.5;entryDx=0;entryDy=0;strokeWidth=2;" parent="oCeH0NB3TBP8RnQr3PCx-68" source="gi7hXdSJ0SCI4IGhWJ_C-49" target="gi7hXdSJ0SCI4IGhWJ_C-51" edge="1">
          <mxGeometry relative="1" as="geometry" />
        </mxCell>
        <mxCell id="gi7hXdSJ0SCI4IGhWJ_C-58" style="edgeStyle=orthogonalEdgeStyle;rounded=0;orthogonalLoop=1;jettySize=auto;html=1;strokeWidth=2;" parent="oCeH0NB3TBP8RnQr3PCx-68" source="gi7hXdSJ0SCI4IGhWJ_C-55" target="gi7hXdSJ0SCI4IGhWJ_C-45" edge="1">
          <mxGeometry relative="1" as="geometry">
            <Array as="points">
              <mxPoint x="747" y="312" />
            </Array>
          </mxGeometry>
        </mxCell>
        <mxCell id="gi7hXdSJ0SCI4IGhWJ_C-55" value="i++" style="rounded=0;whiteSpace=wrap;html=1;strokeWidth=2;" parent="oCeH0NB3TBP8RnQr3PCx-68" vertex="1">
          <mxGeometry x="687" y="348" width="120" height="31" as="geometry" />
        </mxCell>
        <mxCell id="gi7hXdSJ0SCI4IGhWJ_C-57" style="edgeStyle=orthogonalEdgeStyle;rounded=0;orthogonalLoop=1;jettySize=auto;html=1;entryX=0.5;entryY=1;entryDx=0;entryDy=0;strokeWidth=2;" parent="oCeH0NB3TBP8RnQr3PCx-68" source="gi7hXdSJ0SCI4IGhWJ_C-50" target="gi7hXdSJ0SCI4IGhWJ_C-55" edge="1">
          <mxGeometry relative="1" as="geometry" />
        </mxCell>
        <mxCell id="gi7hXdSJ0SCI4IGhWJ_C-56" style="edgeStyle=orthogonalEdgeStyle;rounded=0;orthogonalLoop=1;jettySize=auto;html=1;entryX=0.5;entryY=1;entryDx=0;entryDy=0;strokeWidth=2;exitX=1;exitY=0.5;exitDx=0;exitDy=0;" parent="oCeH0NB3TBP8RnQr3PCx-68" source="gi7hXdSJ0SCI4IGhWJ_C-51" target="gi7hXdSJ0SCI4IGhWJ_C-55" edge="1">
          <mxGeometry relative="1" as="geometry">
            <mxPoint x="696" y="437.5" as="sourcePoint" />
            <Array as="points">
              <mxPoint x="716" y="434" />
              <mxPoint x="747" y="434" />
            </Array>
          </mxGeometry>
        </mxCell>
        <mxCell id="gi7hXdSJ0SCI4IGhWJ_C-61" value="YES" style="text;html=1;strokeColor=none;fillColor=none;align=center;verticalAlign=middle;whiteSpace=wrap;rounded=0;" parent="oCeH0NB3TBP8RnQr3PCx-68" vertex="1">
          <mxGeometry x="294" y="352" width="38" height="30" as="geometry" />
        </mxCell>
        <mxCell id="gi7hXdSJ0SCI4IGhWJ_C-62" value="YES" style="text;html=1;strokeColor=none;fillColor=none;align=center;verticalAlign=middle;whiteSpace=wrap;rounded=0;" parent="oCeH0NB3TBP8RnQr3PCx-68" vertex="1">
          <mxGeometry x="297" y="469" width="38" height="30" as="geometry" />
        </mxCell>
        <mxCell id="gi7hXdSJ0SCI4IGhWJ_C-63" value="NO" style="text;html=1;strokeColor=none;fillColor=none;align=center;verticalAlign=middle;whiteSpace=wrap;rounded=0;" parent="oCeH0NB3TBP8RnQr3PCx-68" vertex="1">
          <mxGeometry x="371" y="399" width="38" height="30" as="geometry" />
        </mxCell>
        <mxCell id="gi7hXdSJ0SCI4IGhWJ_C-64" value="NO" style="text;html=1;strokeColor=none;fillColor=none;align=center;verticalAlign=middle;whiteSpace=wrap;rounded=0;" parent="oCeH0NB3TBP8RnQr3PCx-68" vertex="1">
          <mxGeometry x="167" y="275" width="38" height="30" as="geometry" />
        </mxCell>
        <mxCell id="gi7hXdSJ0SCI4IGhWJ_C-65" value="&lt;b&gt;&lt;font style=&quot;font-size: 10px;&quot;&gt;HUFFMAN TREE&lt;/font&gt;&lt;/b&gt;" style="rounded=1;whiteSpace=wrap;html=1;strokeWidth=2;" parent="oCeH0NB3TBP8RnQr3PCx-68" vertex="1">
          <mxGeometry x="16" y="298.5" width="107" height="26" as="geometry" />
        </mxCell>
        <mxCell id="gi7hXdSJ0SCI4IGhWJ_C-60" style="edgeStyle=orthogonalEdgeStyle;rounded=0;orthogonalLoop=1;jettySize=auto;html=1;" parent="oCeH0NB3TBP8RnQr3PCx-68" source="gi7hXdSJ0SCI4IGhWJ_C-45" target="gi7hXdSJ0SCI4IGhWJ_C-65" edge="1">
          <mxGeometry relative="1" as="geometry">
            <mxPoint x="105" y="311.5" as="targetPoint" />
          </mxGeometry>
        </mxCell>
        <mxCell id="oCeH0NB3TBP8RnQr3PCx-119" value="" style="group" parent="1" vertex="1" connectable="0">
          <mxGeometry x="3883" y="163" width="669" height="657" as="geometry" />
        </mxCell>
        <mxCell id="oCeH0NB3TBP8RnQr3PCx-118" value="" style="rounded=0;whiteSpace=wrap;html=1;dashed=1;strokeWidth=2;" parent="oCeH0NB3TBP8RnQr3PCx-119" vertex="1">
          <mxGeometry width="669" height="657" as="geometry" />
        </mxCell>
        <mxCell id="oCeH0NB3TBP8RnQr3PCx-69" value="&lt;span style=&quot;font-size: 10px;&quot;&gt;&lt;b&gt;ENCODE&lt;/b&gt;&lt;/span&gt;" style="rounded=1;whiteSpace=wrap;html=1;strokeWidth=2;" parent="oCeH0NB3TBP8RnQr3PCx-119" vertex="1">
          <mxGeometry x="213.89000000000033" y="12" width="125" height="26" as="geometry" />
        </mxCell>
        <mxCell id="oCeH0NB3TBP8RnQr3PCx-71" value="count_leaf: 0 =&amp;gt; n - 1&lt;br&gt;count_pair: 0 =&amp;gt; 2n-1" style="rounded=0;whiteSpace=wrap;html=1;strokeWidth=2;" parent="oCeH0NB3TBP8RnQr3PCx-119" vertex="1">
          <mxGeometry x="192.88999999999987" y="66" width="167" height="51" as="geometry" />
        </mxCell>
        <mxCell id="oCeH0NB3TBP8RnQr3PCx-72" style="edgeStyle=orthogonalEdgeStyle;rounded=0;orthogonalLoop=1;jettySize=auto;html=1;entryX=0.5;entryY=0;entryDx=0;entryDy=0;" parent="oCeH0NB3TBP8RnQr3PCx-119" source="oCeH0NB3TBP8RnQr3PCx-69" target="oCeH0NB3TBP8RnQr3PCx-71" edge="1">
          <mxGeometry relative="1" as="geometry" />
        </mxCell>
        <mxCell id="oCeH0NB3TBP8RnQr3PCx-73" value="state = leaf_node[0]" style="rounded=0;whiteSpace=wrap;html=1;strokeWidth=2;" parent="oCeH0NB3TBP8RnQr3PCx-119" vertex="1">
          <mxGeometry x="192.88999999999987" y="147" width="167" height="32" as="geometry" />
        </mxCell>
        <mxCell id="oCeH0NB3TBP8RnQr3PCx-74" style="edgeStyle=orthogonalEdgeStyle;rounded=0;orthogonalLoop=1;jettySize=auto;html=1;entryX=0.5;entryY=0;entryDx=0;entryDy=0;" parent="oCeH0NB3TBP8RnQr3PCx-119" source="oCeH0NB3TBP8RnQr3PCx-71" target="oCeH0NB3TBP8RnQr3PCx-73" edge="1">
          <mxGeometry relative="1" as="geometry" />
        </mxCell>
        <mxCell id="oCeH0NB3TBP8RnQr3PCx-97" style="edgeStyle=orthogonalEdgeStyle;rounded=0;orthogonalLoop=1;jettySize=auto;html=1;" parent="oCeH0NB3TBP8RnQr3PCx-119" source="oCeH0NB3TBP8RnQr3PCx-91" edge="1">
          <mxGeometry relative="1" as="geometry">
            <mxPoint x="381.27393702651534" y="227" as="targetPoint" />
          </mxGeometry>
        </mxCell>
        <mxCell id="oCeH0NB3TBP8RnQr3PCx-91" value="count_leaf &amp;lt; n" style="rhombus;whiteSpace=wrap;html=1;strokeWidth=2;" parent="oCeH0NB3TBP8RnQr3PCx-119" vertex="1">
          <mxGeometry x="216.26000000000022" y="207" width="120.25" height="40" as="geometry" />
        </mxCell>
        <mxCell id="oCeH0NB3TBP8RnQr3PCx-92" style="edgeStyle=orthogonalEdgeStyle;rounded=0;orthogonalLoop=1;jettySize=auto;html=1;entryX=0.5;entryY=0;entryDx=0;entryDy=0;" parent="oCeH0NB3TBP8RnQr3PCx-119" source="oCeH0NB3TBP8RnQr3PCx-73" target="oCeH0NB3TBP8RnQr3PCx-91" edge="1">
          <mxGeometry relative="1" as="geometry" />
        </mxCell>
        <mxCell id="oCeH0NB3TBP8RnQr3PCx-93" value="state == pair_list[count_pair]" style="rhombus;whiteSpace=wrap;html=1;strokeWidth=2;" parent="oCeH0NB3TBP8RnQr3PCx-119" vertex="1">
          <mxGeometry x="165.5699999999997" y="282" width="221.63" height="56" as="geometry" />
        </mxCell>
        <mxCell id="oCeH0NB3TBP8RnQr3PCx-94" style="edgeStyle=orthogonalEdgeStyle;rounded=0;orthogonalLoop=1;jettySize=auto;html=1;entryX=0.5;entryY=0;entryDx=0;entryDy=0;" parent="oCeH0NB3TBP8RnQr3PCx-119" source="oCeH0NB3TBP8RnQr3PCx-91" target="oCeH0NB3TBP8RnQr3PCx-93" edge="1">
          <mxGeometry relative="1" as="geometry" />
        </mxCell>
        <mxCell id="oCeH0NB3TBP8RnQr3PCx-95" value="NO" style="text;html=1;strokeColor=none;fillColor=none;align=center;verticalAlign=middle;whiteSpace=wrap;rounded=0;" parent="oCeH0NB3TBP8RnQr3PCx-119" vertex="1">
          <mxGeometry x="335.52000000000135" y="200.5" width="32.75" height="22" as="geometry" />
        </mxCell>
        <mxCell id="oCeH0NB3TBP8RnQr3PCx-96" value="YES" style="text;html=1;strokeColor=none;fillColor=none;align=center;verticalAlign=middle;whiteSpace=wrap;rounded=0;" parent="oCeH0NB3TBP8RnQr3PCx-119" vertex="1">
          <mxGeometry x="279.8900000000003" y="250" width="32.75" height="22" as="geometry" />
        </mxCell>
        <mxCell id="oCeH0NB3TBP8RnQr3PCx-103" style="edgeStyle=orthogonalEdgeStyle;rounded=0;orthogonalLoop=1;jettySize=auto;html=1;entryX=0.5;entryY=0;entryDx=0;entryDy=0;" parent="oCeH0NB3TBP8RnQr3PCx-119" source="oCeH0NB3TBP8RnQr3PCx-98" target="oCeH0NB3TBP8RnQr3PCx-93" edge="1">
          <mxGeometry relative="1" as="geometry">
            <mxPoint x="171.88999999999987" y="213" as="targetPoint" />
            <Array as="points">
              <mxPoint x="276.8900000000003" y="270" />
            </Array>
          </mxGeometry>
        </mxCell>
        <mxCell id="oCeH0NB3TBP8RnQr3PCx-98" value="count_pair++" style="rounded=0;whiteSpace=wrap;html=1;strokeWidth=2;" parent="oCeH0NB3TBP8RnQr3PCx-119" vertex="1">
          <mxGeometry x="35.88999999999987" y="322" width="90" height="32" as="geometry" />
        </mxCell>
        <mxCell id="oCeH0NB3TBP8RnQr3PCx-99" style="edgeStyle=orthogonalEdgeStyle;rounded=0;orthogonalLoop=1;jettySize=auto;html=1;entryX=0.5;entryY=1;entryDx=0;entryDy=0;" parent="oCeH0NB3TBP8RnQr3PCx-119" source="oCeH0NB3TBP8RnQr3PCx-93" target="oCeH0NB3TBP8RnQr3PCx-98" edge="1">
          <mxGeometry relative="1" as="geometry" />
        </mxCell>
        <mxCell id="oCeH0NB3TBP8RnQr3PCx-100" value="NO" style="text;html=1;strokeColor=none;fillColor=none;align=center;verticalAlign=middle;whiteSpace=wrap;rounded=0;" parent="oCeH0NB3TBP8RnQr3PCx-119" vertex="1">
          <mxGeometry x="145.89000000000124" y="316" width="32.75" height="22" as="geometry" />
        </mxCell>
        <mxCell id="oCeH0NB3TBP8RnQr3PCx-102" value="YES" style="text;html=1;strokeColor=none;fillColor=none;align=center;verticalAlign=middle;whiteSpace=wrap;rounded=0;" parent="oCeH0NB3TBP8RnQr3PCx-119" vertex="1">
          <mxGeometry x="279.8900000000003" y="343" width="32.75" height="22" as="geometry" />
        </mxCell>
        <mxCell id="oCeH0NB3TBP8RnQr3PCx-104" value="count_pair % 2 == 0" style="rhombus;whiteSpace=wrap;html=1;strokeWidth=2;" parent="oCeH0NB3TBP8RnQr3PCx-119" vertex="1">
          <mxGeometry x="165.5699999999997" y="371" width="221.63" height="56" as="geometry" />
        </mxCell>
        <mxCell id="oCeH0NB3TBP8RnQr3PCx-101" style="edgeStyle=orthogonalEdgeStyle;rounded=0;orthogonalLoop=1;jettySize=auto;html=1;" parent="oCeH0NB3TBP8RnQr3PCx-119" source="oCeH0NB3TBP8RnQr3PCx-93" target="oCeH0NB3TBP8RnQr3PCx-104" edge="1">
          <mxGeometry relative="1" as="geometry">
            <mxPoint x="276.3850000000011" y="376.717196377841" as="targetPoint" />
          </mxGeometry>
        </mxCell>
        <mxCell id="oCeH0NB3TBP8RnQr3PCx-107" value="YES" style="text;html=1;strokeColor=none;fillColor=none;align=center;verticalAlign=middle;whiteSpace=wrap;rounded=0;" parent="oCeH0NB3TBP8RnQr3PCx-119" vertex="1">
          <mxGeometry x="382.8900000000003" y="376" width="32.75" height="22" as="geometry" />
        </mxCell>
        <mxCell id="oCeH0NB3TBP8RnQr3PCx-108" value="NO" style="text;html=1;strokeColor=none;fillColor=none;align=center;verticalAlign=middle;whiteSpace=wrap;rounded=0;" parent="oCeH0NB3TBP8RnQr3PCx-119" vertex="1">
          <mxGeometry x="276.89000000000124" y="427" width="32.75" height="22" as="geometry" />
        </mxCell>
        <mxCell id="oCeH0NB3TBP8RnQr3PCx-109" value="count_word[count_leaf] &amp;lt;&amp;lt; 1) OR 1&#39;b1" style="rounded=0;whiteSpace=wrap;html=1;strokeWidth=2;" parent="oCeH0NB3TBP8RnQr3PCx-119" vertex="1">
          <mxGeometry x="164.88999999999987" y="458" width="223.01" height="32" as="geometry" />
        </mxCell>
        <mxCell id="oCeH0NB3TBP8RnQr3PCx-105" style="edgeStyle=orthogonalEdgeStyle;rounded=0;orthogonalLoop=1;jettySize=auto;html=1;" parent="oCeH0NB3TBP8RnQr3PCx-119" source="oCeH0NB3TBP8RnQr3PCx-104" target="oCeH0NB3TBP8RnQr3PCx-109" edge="1">
          <mxGeometry relative="1" as="geometry">
            <mxPoint x="276.3850000000002" y="464.95238095238096" as="targetPoint" />
          </mxGeometry>
        </mxCell>
        <mxCell id="oCeH0NB3TBP8RnQr3PCx-122" style="edgeStyle=orthogonalEdgeStyle;rounded=0;orthogonalLoop=1;jettySize=auto;html=1;" parent="oCeH0NB3TBP8RnQr3PCx-119" source="oCeH0NB3TBP8RnQr3PCx-110" target="oCeH0NB3TBP8RnQr3PCx-113" edge="1">
          <mxGeometry relative="1" as="geometry" />
        </mxCell>
        <mxCell id="oCeH0NB3TBP8RnQr3PCx-110" value="count_word[count_leaf] &amp;lt;&amp;lt; 1) OR 1&#39;b0" style="rounded=0;whiteSpace=wrap;html=1;strokeWidth=2;" parent="oCeH0NB3TBP8RnQr3PCx-119" vertex="1">
          <mxGeometry x="406.8900000000003" y="458" width="223.01" height="32" as="geometry" />
        </mxCell>
        <mxCell id="oCeH0NB3TBP8RnQr3PCx-106" style="edgeStyle=orthogonalEdgeStyle;rounded=0;orthogonalLoop=1;jettySize=auto;html=1;entryX=0.5;entryY=0;entryDx=0;entryDy=0;" parent="oCeH0NB3TBP8RnQr3PCx-119" source="oCeH0NB3TBP8RnQr3PCx-104" target="oCeH0NB3TBP8RnQr3PCx-110" edge="1">
          <mxGeometry relative="1" as="geometry">
            <mxPoint x="428.1122319103424" y="399" as="targetPoint" />
          </mxGeometry>
        </mxCell>
        <mxCell id="oCeH0NB3TBP8RnQr3PCx-111" value="state = pair_list[count_pair]&lt;br&gt;+&lt;br&gt;pair_list[count_pair - 1]" style="rounded=0;whiteSpace=wrap;html=1;strokeWidth=2;" parent="oCeH0NB3TBP8RnQr3PCx-119" vertex="1">
          <mxGeometry x="164.19000000000005" y="510" width="223.01" height="58" as="geometry" />
        </mxCell>
        <mxCell id="oCeH0NB3TBP8RnQr3PCx-112" style="edgeStyle=orthogonalEdgeStyle;rounded=0;orthogonalLoop=1;jettySize=auto;html=1;entryX=0.5;entryY=0;entryDx=0;entryDy=0;" parent="oCeH0NB3TBP8RnQr3PCx-119" source="oCeH0NB3TBP8RnQr3PCx-109" target="oCeH0NB3TBP8RnQr3PCx-111" edge="1">
          <mxGeometry relative="1" as="geometry" />
        </mxCell>
        <mxCell id="oCeH0NB3TBP8RnQr3PCx-113" value="state = pair_list[count_pair]&lt;br&gt;+&lt;br&gt;pair_list[count_pair + 1]" style="rounded=0;whiteSpace=wrap;html=1;strokeWidth=2;" parent="oCeH0NB3TBP8RnQr3PCx-119" vertex="1">
          <mxGeometry x="406.8900000000003" y="510" width="223.01" height="58" as="geometry" />
        </mxCell>
        <mxCell id="oCeH0NB3TBP8RnQr3PCx-159" style="edgeStyle=orthogonalEdgeStyle;rounded=0;orthogonalLoop=1;jettySize=auto;html=1;" parent="oCeH0NB3TBP8RnQr3PCx-119" source="oCeH0NB3TBP8RnQr3PCx-114" target="oCeH0NB3TBP8RnQr3PCx-158" edge="1">
          <mxGeometry relative="1" as="geometry" />
        </mxCell>
        <mxCell id="oCeH0NB3TBP8RnQr3PCx-114" value="count_pair = 0" style="rounded=0;whiteSpace=wrap;html=1;strokeWidth=2;" parent="oCeH0NB3TBP8RnQr3PCx-119" vertex="1">
          <mxGeometry x="230.70000000000073" y="603" width="90" height="32" as="geometry" />
        </mxCell>
        <mxCell id="oCeH0NB3TBP8RnQr3PCx-115" style="edgeStyle=orthogonalEdgeStyle;rounded=0;orthogonalLoop=1;jettySize=auto;html=1;entryX=0.5;entryY=0;entryDx=0;entryDy=0;" parent="oCeH0NB3TBP8RnQr3PCx-119" source="oCeH0NB3TBP8RnQr3PCx-111" target="oCeH0NB3TBP8RnQr3PCx-114" edge="1">
          <mxGeometry relative="1" as="geometry" />
        </mxCell>
        <mxCell id="oCeH0NB3TBP8RnQr3PCx-116" style="edgeStyle=orthogonalEdgeStyle;rounded=0;orthogonalLoop=1;jettySize=auto;html=1;entryX=1;entryY=0.5;entryDx=0;entryDy=0;" parent="oCeH0NB3TBP8RnQr3PCx-119" source="oCeH0NB3TBP8RnQr3PCx-113" target="oCeH0NB3TBP8RnQr3PCx-114" edge="1">
          <mxGeometry relative="1" as="geometry">
            <Array as="points">
              <mxPoint x="517.8900000000003" y="619" />
            </Array>
          </mxGeometry>
        </mxCell>
        <mxCell id="oCeH0NB3TBP8RnQr3PCx-120" value="&lt;span style=&quot;font-size: 10px;&quot;&gt;&lt;b&gt;CODE WORD&lt;/b&gt;&lt;/span&gt;" style="rounded=1;whiteSpace=wrap;html=1;strokeWidth=2;" parent="oCeH0NB3TBP8RnQr3PCx-119" vertex="1">
          <mxGeometry x="382.8900000000007" y="214" width="125" height="26" as="geometry" />
        </mxCell>
        <mxCell id="oCeH0NB3TBP8RnQr3PCx-160" style="edgeStyle=orthogonalEdgeStyle;rounded=0;orthogonalLoop=1;jettySize=auto;html=1;entryX=0.5;entryY=0;entryDx=0;entryDy=0;" parent="oCeH0NB3TBP8RnQr3PCx-119" source="oCeH0NB3TBP8RnQr3PCx-158" target="oCeH0NB3TBP8RnQr3PCx-93" edge="1">
          <mxGeometry relative="1" as="geometry">
            <Array as="points">
              <mxPoint x="25" y="619" />
              <mxPoint x="25" y="270" />
              <mxPoint x="276" y="270" />
            </Array>
          </mxGeometry>
        </mxCell>
        <mxCell id="oCeH0NB3TBP8RnQr3PCx-158" value="order_tree[count_leaf]++" style="rounded=0;whiteSpace=wrap;html=1;strokeWidth=2;" parent="oCeH0NB3TBP8RnQr3PCx-119" vertex="1">
          <mxGeometry x="38" y="603" width="154.89" height="32" as="geometry" />
        </mxCell>
        <mxCell id="24KTE11Bma6BI79fgWMw-6" style="edgeStyle=orthogonalEdgeStyle;rounded=0;orthogonalLoop=1;jettySize=auto;html=1;entryX=0.5;entryY=0;entryDx=0;entryDy=0;" parent="1" source="gi7hXdSJ0SCI4IGhWJ_C-34" target="24KTE11Bma6BI79fgWMw-5" edge="1">
          <mxGeometry relative="1" as="geometry" />
        </mxCell>
        <mxCell id="gi7hXdSJ0SCI4IGhWJ_C-34" value="&lt;b&gt;PROCESS TEXT&lt;/b&gt;" style="rounded=1;whiteSpace=wrap;html=1;strokeWidth=2;" parent="1" vertex="1">
          <mxGeometry x="700.25" y="185" width="121" height="34" as="geometry" />
        </mxCell>
        <mxCell id="24KTE11Bma6BI79fgWMw-18" style="edgeStyle=orthogonalEdgeStyle;rounded=0;orthogonalLoop=1;jettySize=auto;html=1;entryX=0.5;entryY=0;entryDx=0;entryDy=0;" parent="1" source="gi7hXdSJ0SCI4IGhWJ_C-35" target="gi7hXdSJ0SCI4IGhWJ_C-17" edge="1">
          <mxGeometry relative="1" as="geometry" />
        </mxCell>
        <mxCell id="gi7hXdSJ0SCI4IGhWJ_C-35" value="[BIT_WIDTH-1:0] TEXT [MAX_CHAR]" style="rounded=0;whiteSpace=wrap;html=1;strokeWidth=2;" parent="1" vertex="1">
          <mxGeometry x="220" y="324" width="178.87" height="33" as="geometry" />
        </mxCell>
        <mxCell id="24KTE11Bma6BI79fgWMw-9" style="edgeStyle=orthogonalEdgeStyle;rounded=0;orthogonalLoop=1;jettySize=auto;html=1;entryX=0.5;entryY=0;entryDx=0;entryDy=0;" parent="1" source="24KTE11Bma6BI79fgWMw-5" target="24KTE11Bma6BI79fgWMw-11" edge="1">
          <mxGeometry relative="1" as="geometry">
            <mxPoint x="760.7449999999999" y="332.0540705500422" as="targetPoint" />
          </mxGeometry>
        </mxCell>
        <mxCell id="24KTE11Bma6BI79fgWMw-10" style="edgeStyle=orthogonalEdgeStyle;rounded=0;orthogonalLoop=1;jettySize=auto;html=1;entryX=1;entryY=0.5;entryDx=0;entryDy=0;" parent="1" source="24KTE11Bma6BI79fgWMw-5" target="24KTE11Bma6BI79fgWMw-15" edge="1">
          <mxGeometry relative="1" as="geometry">
            <mxPoint x="872.5045264991554" y="268.5" as="targetPoint" />
            <Array as="points">
              <mxPoint x="857" y="268" />
              <mxPoint x="857" y="464" />
            </Array>
          </mxGeometry>
        </mxCell>
        <mxCell id="24KTE11Bma6BI79fgWMw-5" value="data_enable = 1" style="rhombus;whiteSpace=wrap;html=1;strokeWidth=2;" parent="1" vertex="1">
          <mxGeometry x="704.12" y="244" width="113.25" height="49" as="geometry" />
        </mxCell>
        <mxCell id="24KTE11Bma6BI79fgWMw-7" value="YES" style="text;html=1;strokeColor=none;fillColor=none;align=center;verticalAlign=middle;whiteSpace=wrap;rounded=0;" parent="1" vertex="1">
          <mxGeometry x="762" y="289.5" width="38" height="30" as="geometry" />
        </mxCell>
        <mxCell id="24KTE11Bma6BI79fgWMw-8" value="NO" style="text;html=1;strokeColor=none;fillColor=none;align=center;verticalAlign=middle;whiteSpace=wrap;rounded=0;" parent="1" vertex="1">
          <mxGeometry x="821.25" y="237" width="38" height="30" as="geometry" />
        </mxCell>
        <mxCell id="24KTE11Bma6BI79fgWMw-13" style="edgeStyle=orthogonalEdgeStyle;rounded=0;orthogonalLoop=1;jettySize=auto;html=1;entryX=0.5;entryY=0;entryDx=0;entryDy=0;" parent="1" source="24KTE11Bma6BI79fgWMw-11" target="24KTE11Bma6BI79fgWMw-12" edge="1">
          <mxGeometry relative="1" as="geometry" />
        </mxCell>
        <mxCell id="24KTE11Bma6BI79fgWMw-11" value="TEXT[i] = INPUT_TEXT" style="rounded=0;whiteSpace=wrap;html=1;strokeWidth=2;" parent="1" vertex="1">
          <mxGeometry x="684.31" y="319.5" width="152.87" height="34" as="geometry" />
        </mxCell>
        <mxCell id="24KTE11Bma6BI79fgWMw-14" style="edgeStyle=orthogonalEdgeStyle;rounded=0;orthogonalLoop=1;jettySize=auto;html=1;entryX=0.5;entryY=0;entryDx=0;entryDy=0;" parent="1" source="24KTE11Bma6BI79fgWMw-12" target="24KTE11Bma6BI79fgWMw-5" edge="1">
          <mxGeometry relative="1" as="geometry">
            <Array as="points">
              <mxPoint x="761" y="430" />
              <mxPoint x="657" y="430" />
              <mxPoint x="657" y="230" />
              <mxPoint x="761" y="230" />
            </Array>
          </mxGeometry>
        </mxCell>
        <mxCell id="24KTE11Bma6BI79fgWMw-12" value="i++" style="rounded=0;whiteSpace=wrap;html=1;strokeWidth=2;" parent="1" vertex="1">
          <mxGeometry x="684.31" y="377" width="152.87" height="34" as="geometry" />
        </mxCell>
        <mxCell id="24KTE11Bma6BI79fgWMw-15" value="N &amp;lt;= i&lt;br&gt;//Số kí tự trong TEXT" style="rounded=0;whiteSpace=wrap;html=1;strokeWidth=2;" parent="1" vertex="1">
          <mxGeometry x="684.31" y="447" width="152.87" height="34" as="geometry" />
        </mxCell>
        <mxCell id="24KTE11Bma6BI79fgWMw-20" value="" style="group" parent="1" vertex="1" connectable="0">
          <mxGeometry x="25" y="148" width="159" height="275" as="geometry" />
        </mxCell>
        <mxCell id="gi7hXdSJ0SCI4IGhWJ_C-12" value="&lt;font size=&quot;1&quot; style=&quot;&quot;&gt;&lt;b style=&quot;font-size: 9px;&quot;&gt;PROCESS OF HUFFMAN ENCODE&lt;/b&gt;&lt;/font&gt;" style="text;html=1;strokeColor=none;fillColor=none;align=center;verticalAlign=middle;whiteSpace=wrap;rounded=0;" parent="24KTE11Bma6BI79fgWMw-20" vertex="1">
          <mxGeometry width="158" height="18" as="geometry" />
        </mxCell>
        <mxCell id="gi7hXdSJ0SCI4IGhWJ_C-10" value="" style="rounded=0;whiteSpace=wrap;html=1;dashed=1;strokeWidth=2;" parent="24KTE11Bma6BI79fgWMw-20" vertex="1">
          <mxGeometry y="18" width="159" height="257" as="geometry" />
        </mxCell>
        <mxCell id="gi7hXdSJ0SCI4IGhWJ_C-1" value="&lt;font style=&quot;font-size: 10px;&quot;&gt;&lt;b&gt;START&lt;/b&gt;&lt;/font&gt;" style="ellipse;whiteSpace=wrap;html=1;strokeWidth=2;" parent="24KTE11Bma6BI79fgWMw-20" vertex="1">
          <mxGeometry x="56" y="33" width="45" height="30" as="geometry" />
        </mxCell>
        <mxCell id="gi7hXdSJ0SCI4IGhWJ_C-2" value="&lt;font style=&quot;font-size: 10px;&quot;&gt;&lt;b&gt;END&lt;/b&gt;&lt;/font&gt;" style="ellipse;whiteSpace=wrap;html=1;strokeWidth=2;" parent="24KTE11Bma6BI79fgWMw-20" vertex="1">
          <mxGeometry x="56" y="229" width="45" height="30" as="geometry" />
        </mxCell>
        <mxCell id="gi7hXdSJ0SCI4IGhWJ_C-3" value="&lt;b&gt;&lt;font style=&quot;font-size: 10px;&quot;&gt;TABLE PROBALITY&lt;/font&gt;&lt;/b&gt;" style="rounded=1;whiteSpace=wrap;html=1;strokeWidth=2;" parent="24KTE11Bma6BI79fgWMw-20" vertex="1">
          <mxGeometry x="25" y="84" width="107" height="26" as="geometry" />
        </mxCell>
        <mxCell id="gi7hXdSJ0SCI4IGhWJ_C-6" style="edgeStyle=orthogonalEdgeStyle;rounded=0;orthogonalLoop=1;jettySize=auto;html=1;entryX=0.5;entryY=0;entryDx=0;entryDy=0;" parent="24KTE11Bma6BI79fgWMw-20" source="gi7hXdSJ0SCI4IGhWJ_C-1" target="gi7hXdSJ0SCI4IGhWJ_C-3" edge="1">
          <mxGeometry relative="1" as="geometry" />
        </mxCell>
        <mxCell id="gi7hXdSJ0SCI4IGhWJ_C-4" value="&lt;b&gt;&lt;font style=&quot;font-size: 10px;&quot;&gt;HUFFMAN TREE&lt;/font&gt;&lt;/b&gt;" style="rounded=1;whiteSpace=wrap;html=1;strokeWidth=2;" parent="24KTE11Bma6BI79fgWMw-20" vertex="1">
          <mxGeometry x="25" y="131" width="107" height="26" as="geometry" />
        </mxCell>
        <mxCell id="gi7hXdSJ0SCI4IGhWJ_C-7" style="edgeStyle=orthogonalEdgeStyle;rounded=0;orthogonalLoop=1;jettySize=auto;html=1;entryX=0.5;entryY=0;entryDx=0;entryDy=0;" parent="24KTE11Bma6BI79fgWMw-20" source="gi7hXdSJ0SCI4IGhWJ_C-3" target="gi7hXdSJ0SCI4IGhWJ_C-4" edge="1">
          <mxGeometry relative="1" as="geometry" />
        </mxCell>
        <mxCell id="gi7hXdSJ0SCI4IGhWJ_C-9" style="edgeStyle=orthogonalEdgeStyle;rounded=0;orthogonalLoop=1;jettySize=auto;html=1;" parent="24KTE11Bma6BI79fgWMw-20" source="gi7hXdSJ0SCI4IGhWJ_C-5" target="gi7hXdSJ0SCI4IGhWJ_C-2" edge="1">
          <mxGeometry relative="1" as="geometry" />
        </mxCell>
        <mxCell id="gi7hXdSJ0SCI4IGhWJ_C-5" value="&lt;b&gt;&lt;font style=&quot;font-size: 10px;&quot;&gt;SUBCODEWORD&lt;/font&gt;&lt;/b&gt;" style="rounded=1;whiteSpace=wrap;html=1;strokeWidth=2;" parent="24KTE11Bma6BI79fgWMw-20" vertex="1">
          <mxGeometry x="25" y="178" width="107" height="26" as="geometry" />
        </mxCell>
        <mxCell id="gi7hXdSJ0SCI4IGhWJ_C-8" style="edgeStyle=orthogonalEdgeStyle;rounded=0;orthogonalLoop=1;jettySize=auto;html=1;" parent="24KTE11Bma6BI79fgWMw-20" source="gi7hXdSJ0SCI4IGhWJ_C-4" target="gi7hXdSJ0SCI4IGhWJ_C-5" edge="1">
          <mxGeometry relative="1" as="geometry" />
        </mxCell>
        <mxCell id="24KTE11Bma6BI79fgWMw-22" value="" style="group" parent="1" vertex="1" connectable="0">
          <mxGeometry x="890" y="165" width="474" height="400" as="geometry" />
        </mxCell>
        <mxCell id="oCeH0NB3TBP8RnQr3PCx-9" value="" style="rounded=0;whiteSpace=wrap;html=1;dashed=1;strokeWidth=2;" parent="24KTE11Bma6BI79fgWMw-22" vertex="1">
          <mxGeometry width="474" height="400" as="geometry" />
        </mxCell>
        <mxCell id="gi7hXdSJ0SCI4IGhWJ_C-31" value="&lt;b&gt;PARAMETER&lt;/b&gt;" style="rounded=1;whiteSpace=wrap;html=1;strokeWidth=2;" parent="24KTE11Bma6BI79fgWMw-22" vertex="1">
          <mxGeometry x="198" y="17" width="121" height="34" as="geometry" />
        </mxCell>
        <mxCell id="24KTE11Bma6BI79fgWMw-21" value="PARAMETER MAX_CHAR = 255&lt;br&gt;PARAMETER BIT_WIDTH = 8&lt;br&gt;PARAMETER MAX_SYM = 255&lt;br&gt;PARAMETER F = 32640&lt;br&gt;PARAMETER BIT_FREQ = int[LOG2(MAX_CHAR)] + 1&lt;br&gt;PARAMETER BIT_SYMBOL = int[LOG2(F)] + 1&lt;br&gt;&lt;br&gt;LOGIC [7:0] N : number of character from input text&lt;br&gt;LOGIC [LOG2(MAX_SYM)-1:0] n : number of different symbols&lt;br&gt;LOGIC [LOG2(MAX_SYM)/2 -1:0] order_tree : height of tree&lt;br&gt;LOGIC [BIT_WIDTH-1:0] TEXT [MAX_CHAR] : text from input text&lt;br&gt;LOGIC [LOG2(MAX_SYM)-1:0] TABLE [MAX_SYM] : table of frequency for symbols&lt;br&gt;LOGIC [BIT_WIDTH-1:0] STRING [MAX_CHAR] : text after sorting&lt;br&gt;LOGIC [LOG2(MAX_CHAR)-1:0] i&lt;br&gt;LOGIC [LOG2(MAX_CHAR)-1:0] count&lt;br&gt;LOGIC [LOG2(MAX_CHAR):0] index&lt;br&gt;LOGIC [BIT_FREQ+BIT_SYMBOL-1] pair_list [2*MAX_SYM-2]&lt;br&gt;LOGIC [BIT_WIDTH-1:0] code_word [MAX_SYM]" style="rounded=0;whiteSpace=wrap;html=1;strokeWidth=2;align=left;" parent="24KTE11Bma6BI79fgWMw-22" vertex="1">
          <mxGeometry x="9.75" y="124.5" width="454.5" height="263" as="geometry" />
        </mxCell>
        <mxCell id="oCeH0NB3TBP8RnQr3PCx-1" style="edgeStyle=orthogonalEdgeStyle;rounded=0;orthogonalLoop=1;jettySize=auto;html=1;entryX=0.548;entryY=-0.007;entryDx=0;entryDy=0;entryPerimeter=0;" parent="24KTE11Bma6BI79fgWMw-22" source="gi7hXdSJ0SCI4IGhWJ_C-31" target="24KTE11Bma6BI79fgWMw-21" edge="1">
          <mxGeometry relative="1" as="geometry">
            <mxPoint x="258.5" y="93" as="targetPoint" />
          </mxGeometry>
        </mxCell>
      </root>
    </mxGraphModel>
  </diagram>
</mxfile>
